<?xml version="1.0" encoding="UTF-8"?>
<!DOCTYPE svg PUBLIC "-//W3C//DTD SVG 1.1//EN" "http://www.w3.org/Graphics/SVG/1.1/DTD/svg11.dtd">
<svg xmlns="http://www.w3.org/2000/svg" xml:space="preserve" width="50mm" height="50mm" version="1.1"
     style="shape-rendering:geometricPrecision; text-rendering:geometricPrecision; image-rendering:optimizeQuality; fill-rule:evenodd; clip-rule:evenodd"
     viewBox="0 0 5000 5000"
>
 <defs>
  <style type="text/css">
   <![CDATA[
    .str0 {stroke:black;stroke-width:20;stroke-miterlimit:22.9256}
    .fil0 {fill:black}
    .fil3 {fill:white}
    .fil2 {fill:white}
    .fil1 {fill:url(#id0)}
   ]]>
  </style>
  <linearGradient id="id0" gradientUnits="userSpaceOnUse" x1="2495.83" y1="4110.03" x2="2495.83" y2="2942.78">
   <stop offset="0" style="stop-opacity:1; stop-color:black"/>
   <stop offset="0.968627" style="stop-opacity:1; stop-color:#7F7F7F"/>
   <stop offset="1" style="stop-opacity:1; stop-color:white"/>
  </linearGradient>
 </defs>
 <g id="Ebene_x0020_1">
  <metadata id="CorelCorpID_0Corel-Layer"/>
  <rect class="fil0 str0" x="-0" y="0" width="5000" height="5000" rx="305.12" ry="318.07"/>
  <rect class="fil1" x="-14.17" y="2942.78" width="5020" height="1167.25"/>
  <g id="dyson_logo.svg">
   <path class="fil2" d="M1002.94 2495.46c0,105.28 -84.22,189.5 -189.5,189.5 -105.28,0 -189.5,-84.22 -189.5,-189.5 0,-105.28 84.22,-189.5 189.5,-189.5l189.5 0 0 189.5zm210.56 -779.06l-210.56 0 0 383.21c-71.59,0 -143.17,0 -189.5,0 -218.98,0 -395.85,176.87 -395.85,395.85 0,218.98 176.87,395.85 395.85,395.85 218.98,0 395.85,-176.87 395.85,-395.85 0,-109.49 0,-395.85 0,-395.85l4.21 -383.21z"/>
   <g>
    <path class="fil2" d="M3306.43 2684.96c105.28,0 189.5,-84.22 189.5,-189.5 0,-105.28 -84.22,-189.5 -189.5,-189.5 -105.28,0 -189.5,84.22 -189.5,189.5 4.21,105.28 88.43,189.5 189.5,189.5l0 0zm-391.63 -189.5c0,-218.98 176.86,-395.85 395.84,-395.85 218.98,0 395.85,176.87 395.85,395.85 0,218.98 -176.87,395.85 -395.85,395.85 -218.98,0 -395.84,-176.87 -395.84,-395.85z"/>
   </g>
   <path class="fil2" d="M4367.64 2495.46c0,-101.07 -84.23,-185.29 -185.29,-185.29 -101.07,0 -185.29,84.22 -185.29,185.29 0,50.53 0,379 0,379 -105.28,0 -206.35,0 -206.35,0 0,0 0,-269.51 0,-379 0,-218.98 176.87,-395.85 395.85,-395.85 218.98,0 395.85,176.87 395.85,395.85 0,109.49 0,379 0,379 0,0 -101.07,0 -206.35,0 -8.42,0 -8.42,-328.47 -8.42,-379z"/>
   <path class="fil2" d="M2430.52 2360.7c-29.48,-21.05 -21.06,-54.74 29.47,-67.37 63.17,-16.85 172.66,-4.22 265.3,37.9l96.86 -134.76c-42.11,-33.69 -134.76,-80.01 -269.51,-88.43 0,0 -227.4,-29.48 -320.05,143.17 0,0 -80.01,160.03 80.01,261.09 96.86,58.96 265.3,84.23 320.05,109.49 42.11,25.27 29.48,71.59 -33.69,84.23 -109.49,25.26 -252.67,-37.9 -298.99,-71.59l-101.07 138.96c67.38,50.54 151.6,96.86 286.36,117.92 0,0 214.77,37.9 332.68,-109.49 21.05,-25.27 117.91,-206.35 -75.8,-311.63 -101.07,-54.74 -261.09,-80.01 -311.62,-109.49z"/>
   <path class="fil2" d="M1461.96 3026.06c8.42,4.21 105.27,71.59 197.92,71.59 227.4,4.21 240.03,-231.61 240.03,-286.35 -42.11,46.32 -130.54,75.8 -185.29,75.8 -218.97,0 -391.63,-168.45 -391.63,-387.43 0,-109.49 0,-383.21 0,-383.21 0,0 101.07,0 206.34,0 0,0 0,336.89 0,383.21 0,101.07 84.23,185.29 185.29,185.29 101.07,0 185.29,-84.22 185.29,-185.29 0,-42.11 0,-383.21 0,-383.21 105.28,0 206.35,0 206.35,0l0 383.21c0,341.1 16.84,690.63 -315.84,770.64 -248.46,58.95 -425.32,-96.86 -437.96,-105.28l109.5 -138.97z"/>
  </g>
  <g id="ventilator.svg">
   <g id="_882140776">
    <path class="fil3" d="M2572.8 3907.73c42.87,-39.47 217.7,-211.74 204.27,-384.68 -11.4,-146.7 -180.89,-190.86 -274.89,-190.86 -94.01,0 -263.14,44.16 -274.54,190.86 -13.16,169.45 154.68,338.26 201.85,382.13 18.06,-18.02 42.98,-29.16 70.5,-29.16 28.76,0 54.61,12.24 72.81,31.71z"/>
    <path class="fil3" d="M2400.2 3975.81c0,-16.75 4.18,-32.52 11.47,-46.39 -61.92,-18.94 -291.48,-79.36 -431.45,16.63 -121.36,83.22 -74.84,252.07 -27.84,333.49 47.01,81.41 169.8,205.8 302.55,142.32 141.3,-67.57 205.27,-268 225.72,-348.17 -45.85,-9.01 -80.45,-49.38 -80.45,-97.88z"/>
    <path class="fil3" d="M3019.68 3948.82c-138.89,-95.25 -366.1,-36.26 -430.12,-16.78 6.48,13.23 10.22,28.05 10.22,43.77 0,48.84 -35.09,89.4 -81.42,98.03 19.66,78.04 83.56,282.4 226.61,350.8 132.74,63.49 255.73,-61.22 302.73,-142.64 47,-81.4 93.33,-249.95 -28.02,-333.18z"/>
    <path class="fil3" d="M2499.99 3147.92c-456.5,0 -827.89,371.39 -827.89,827.89 0,456.51 371.39,827.9 827.89,827.9 456.51,0 827.9,-371.39 827.9,-827.9 0,-456.5 -371.39,-827.89 -827.9,-827.89zm0 1567.09c-407.59,0 -739.19,-331.6 -739.19,-739.2 0,-407.59 331.6,-739.19 739.19,-739.19 407.6,0 739.2,331.61 739.2,739.19 0,407.59 -331.6,739.2 -739.2,739.2z"/>
   </g>
   <g id="_882140392">
   </g>
   <g id="_882140608">
   </g>
   <g id="_882139624">
   </g>
   <g id="_882140104">
   </g>
   <g id="_882139912">
   </g>
   <g id="_882139336">
   </g>
   <g id="_882138928">
   </g>
   <g id="_882139072">
   </g>
   <g id="_882138760">
   </g>
   <g id="_882138520">
   </g>
   <g id="_882138400">
   </g>
   <g id="_882137824">
   </g>
   <g id="_882137752">
   </g>
   <g id="_882137152">
   </g>
   <g id="_882137056">
   </g>
  </g>
 </g>
</svg>
