<?xml version="1.0" encoding="UTF-8"?>
<!DOCTYPE svg PUBLIC "-//W3C//DTD SVG 1.1//EN" "http://www.w3.org/Graphics/SVG/1.1/DTD/svg11.dtd">
<!-- Creator: CorelDRAW Home & Student 2018 (Keine kommerzielle Nutzung) -->
<svg xmlns="http://www.w3.org/2000/svg" xml:space="preserve" width="50mm" height="50mm" version="1.1" style="shape-rendering:geometricPrecision; text-rendering:geometricPrecision; image-rendering:optimizeQuality; fill-rule:evenodd; clip-rule:evenodd"
viewBox="0 0 5000 5000"
 xmlns:xlink="http://www.w3.org/1999/xlink">
 <defs>
  <style type="text/css">
   <![CDATA[
    .fil0 {fill:#8C0014}
    .fil1 {fill:white}
    .fil2 {fill:url(#id0)}
   ]]>
  </style>
  <linearGradient id="id0" gradientUnits="userSpaceOnUse" x1="2506.18" y1="4089.44" x2="2506.18" y2="2922.19">
   <stop offset="0" style="stop-opacity:1; stop-color:#8C0014"/>
   <stop offset="0.968627" style="stop-opacity:1; stop-color:#C57F89"/>
   <stop offset="1" style="stop-opacity:1; stop-color:white"/>
  </linearGradient>
 </defs>
 <g id="Ebene_x0020_1">
  <metadata id="CorelCorpID_0Corel-Layer"/>
  <polygon class="fil0" points="-250.01,-250.01 5250.01,-250.01 5250.01,5250.01 -250.01,5250.01 "/>
  <path class="fil1" d="M4364.74 2624.41l0 51.99c0,43.84 47.19,84.03 121.26,84.03 106.36,0 149.16,-67.27 157.98,-95.44 114.85,0 205.35,0 237.77,0 -35.39,92.34 -181.57,201.8 -450.48,201.8 -350.4,0 -460.25,-158.87 -460.25,-280.32 0,-129.43 127.03,-283.67 459.69,-283.67 287.73,-0.02 459.72,139.7 459.72,283.81 0,23.97 -2.59,37.8 -2.59,37.8l-523.1 0zm0 -87.72l133.24 0 0 -71.34c0,-21.58 -20.42,-55.83 -67.09,-55.83 -43.12,0 -66.15,32.79 -66.15,55.45l0 71.72zm-976.31 193.31l-94.75 0 0 111.93 639.93 0 0 -111.93 -95.83 0 0 -568.38 -544.1 0 0 111.87 94.75 0 0 456.51zm-659.32 -105.59l0 51.99c0,43.84 47.37,84.03 121.44,84.03 106.37,0 149.11,-67.27 157.79,-95.44 115.01,0 205.36,0 237.96,0 -35.39,92.34 -181.75,201.8 -450.48,201.8 -350.58,0 -460.24,-158.87 -460.24,-280.32 0,-129.43 126.65,-283.67 459.68,-283.67 287.54,-0.02 459.73,139.7 459.73,283.81 0,23.97 -2.6,37.8 -2.6,37.8l-523.28 0zm0 -87.72l133.26 0 0 -71.34c0,-21.58 -20.44,-55.83 -67.11,-55.83 -43.13,0 -66.15,32.79 -66.15,55.45l0 71.72zm-603.65 -304.86l-61.9 -98.62 -195.59 84.22 61.92 99.7 195.57 -85.3zm77.62 98.61l-525.69 0 0 111.87 95.83 0 0 287.69 -95.83 0 0 111.93 621.71 0 0 -111.93 -96.02 0 0 -399.56zm-1090.45 -168.82l478.51 0 0 111.87 -95.83 0 0 456.51 95.83 0 0 111.93 -621.91 0 0 -111.93 96.04 0 0 -295.8 -353.33 407.73 -354.65 -407.73 0 295.8 96.07 0 0 111.93 -343.79 0 0 -111.93 94.75 0 0 -456.51 -94.75 0 0 -111.87 542.81 0 230.79 265.41 229.46 -265.41z"/>
  <rect class="fil2" x="-246.78" y="2922.19" width="5505.93" height="1167.25"/>
  <path class="fil1" d="M2500.09 3331.13c305.15,0 568.6,216.84 627.95,516.22l35.07 174.73 178.23 12.92c181.76,11.53 323.82,164.28 323.82,344.78 0,192.4 -157.26,349.66 -349.47,349.66l-1514.78 0c-257.45,0 -466.07,-208.61 -466.07,-466.07 0,-239.01 178.23,-438.19 414.76,-462.64l124.65 -12.73 58.32 -110.88c110.66,-213.13 327.48,-345.99 567.52,-345.99zm0 -233.06c-336.74,0 -629.33,191.19 -774.93,470.85 -350.73,37.18 -623.39,334.28 -623.39,694.45 0.01,385.58 313.55,699.13 699.14,699.13l1514.78 0c321.55,0 582.54,-261.17 582.54,-582.72 0,-307.6 -238.83,-556.88 -541.7,-577.84 -79.23,-402.04 -432.41,-703.87 -856.44,-703.87z"/>
 </g>
</svg>
