<svg id="OutlineExpandedColored" enable-background="new 0 0 64 64" height="512" viewBox="0 0 64 64" width="512" xmlns="http://www.w3.org/2000/svg"><path d="m6 56 14-14h-9l14-15h-7l14-15 14 15h-7l14 15h-9l14 14z" fill="#76cc7a"/><path d="m26 56h12v5h-12z" fill="#e58842"/><path d="m61 35h-10v-15l5-4 5 4z" fill="#e55648"/><circle cx="24" cy="49" fill="#e55648" r="3"/><circle cx="37" cy="36" fill="#e55648" r="2"/><circle cx="31" cy="23" fill="#e55648" r="2"/><g fill="#153049"><path d="m61.62 19.22-4.62-3.7v-10.02c0-1.93-1.57-3.5-3.5-3.5-.93 0-1.83.37-2.48 1.02-.66.66-1.02 1.54-1.02 2.48v5c0 .83-.67 1.5-1.5 1.5-.4 0-.79-.16-1.06-.44-.28-.28-.44-.66-.44-1.06v-3c0-1.93-1.57-3.5-3.5-3.5-.93 0-1.83.37-2.48 1.02-.66.66-1.02 1.54-1.02 2.48v11.61l-7-7.5v-3.61l1.2 1.6 1.6-1.2-2.05-2.73 3.45-.69-.4-1.96-3.8.76v-2.78h-2v2.78l-3.8-.76-.4 1.96 3.45.69-2.05 2.73 1.6 1.2 1.2-1.6v3.61l-13.73 14.71c-.27.29-.35.71-.19 1.08.16.36.52.6.92.6h4.7l-12.43 13.32c-.27.29-.35.71-.19 1.08.16.36.52.6.92.6h6.59l-12.3 12.29c-.28.29-.37.72-.21 1.09.15.38.52.62.92.62h19v3h-4v2h22v-2h-4v-3h19c.4 0 .77-.24.92-.62.16-.37.07-.8-.21-1.09l-12.3-12.29h6.59c.4 0 .76-.24.92-.6.16-.37.08-.79-.19-1.08l-12.43-13.32h4.7c.4 0 .76-.24.92-.6.16-.37.08-.79-.19-1.08l-4.73-5.07v-13.75c0-.4.16-.78.44-1.06.27-.28.66-.44 1.06-.44.83 0 1.5.67 1.5 1.5v3c0 .94.36 1.82 1.02 2.48.65.65 1.55 1.02 2.48 1.02 1.93 0 3.5-1.57 3.5-3.5v-5c0-.4.16-.78.44-1.06.27-.28.66-.44 1.06-.44.83 0 1.5.67 1.5 1.5v10.02l-4.62 3.7c-.24.19-.38.48-.38.78v15c0 .55.45 1 1 1h10c.55 0 1-.45 1-1v-15c0-.3-.14-.59-.38-.78zm-24.62 40.78h-10v-3h10zm6.7-34h-4.7c-.4 0-.76.24-.92.6-.16.37-.08.79.19 1.08l12.43 13.32h-6.7c-.4 0-.77.24-.92.62-.16.37-.07.8.21 1.09l12.3 12.29h-47.18l12.3-12.29c.28-.29.37-.72.21-1.09-.15-.38-.52-.62-.92-.62h-6.7l12.43-13.32c.27-.29.35-.71.19-1.08-.16-.36-.52-.6-.92-.6h-4.7l11.7-12.53zm16.3 8h-8v-13.52l4-3.2 4 3.2z"/><path d="m55 20h2v2h-2z"/><path d="m24 53c-2.206 0-4-1.794-4-4s1.794-4 4-4 4 1.794 4 4-1.794 4-4 4zm0-6c-1.103 0-2 .897-2 2s.897 2 2 2 2-.897 2-2-.897-2-2-2z"/><path d="m37 39c-1.654 0-3-1.346-3-3s1.346-3 3-3 3 1.346 3 3-1.346 3-3 3zm0-4c-.552 0-1 .449-1 1s.448 1 1 1 1-.449 1-1-.448-1-1-1z"/><path d="m31 26c-1.654 0-3-1.346-3-3s1.346-3 3-3 3 1.346 3 3-1.346 3-3 3zm0-4c-.552 0-1 .449-1 1s.448 1 1 1 1-.449 1-1-.448-1-1-1z"/><path d="m24 34h2v2h-2z"/><path d="m33 44h2v2h-2z"/><path d="m41 49h2v2h-2z"/></g></svg>