<!DOCTYPE svg PUBLIC "-//W3C//DTD SVG 1.0//EN" "http://www.w3.org/TR/2001/REC-SVG-20010904/DTD/svg10.dtd">
<svg id="H_S_Logo" data-name="H&amp;S_Logo" width="307" height="60" xmlns="http://www.w3.org/2000/svg" viewBox="0 0 506.7 50.5"><defs><style>.cls-1{fill:#368cb5;}.cls-2{fill:#9f8373;}</style></defs><title>homeandsmart_logo</title><path class="cls-1" d="M168.3,274.8a1.32,1.32,0,0,1,1.3-1.3h4.6a1.26,1.26,0,0,1,1.3,1.3v19.5h25.6V274.8a1.32,1.32,0,0,1,1.3-1.3H207a1.32,1.32,0,0,1,1.3,1.3v46.3a1.32,1.32,0,0,1-1.3,1.3h-4.6a1.26,1.26,0,0,1-1.3-1.3V300.9H175.5v20.2a1.32,1.32,0,0,1-1.3,1.3h-4.6a1.32,1.32,0,0,1-1.3-1.3Z" transform="translate(-168.3 -272.7)"/><path class="cls-1" d="M246.5,272.8a25.2,25.2,0,1,1,0,50.4,25.2,25.2,0,0,1,0-50.4Zm0,43.6a18.35,18.35,0,0,0,18.2-18.3c0-9.9-8.2-18.5-18.2-18.5s-18.1,8.5-18.1,18.5A18.33,18.33,0,0,0,246.5,316.4Z" transform="translate(-168.3 -272.7)"/><path class="cls-1" d="M288.8,273.8a1.3,1.3,0,0,1,1.3-1h1.1a1.64,1.64,0,0,1,1.2.8L307,309.4h.3l14.6-35.8a1.35,1.35,0,0,1,1.2-.8h1.1a1.52,1.52,0,0,1,1.3,1l8.6,47a1.2,1.2,0,0,1-1.3,1.6h-4.6a1.41,1.41,0,0,1-1.3-1l-5.2-31.3h-.2l-12.6,32.2a1.24,1.24,0,0,1-1.2.8h-1.3a1.35,1.35,0,0,1-1.2-.8l-12.7-32.2h-.3l-5,31.3a1.41,1.41,0,0,1-1.3,1h-4.6a1.2,1.2,0,0,1-1.3-1.6Z" transform="translate(-168.3 -272.7)"/><path class="cls-1" d="M346.2,274.8a1.32,1.32,0,0,1,1.3-1.3h28a1.26,1.26,0,0,1,1.3,1.3v3.9a1.32,1.32,0,0,1-1.3,1.3H353.4v14.3h18.7a1.32,1.32,0,0,1,1.3,1.3v3.9a1.26,1.26,0,0,1-1.3,1.3H353.4V316h22.1a1.26,1.26,0,0,1,1.3,1.3v3.9a1.32,1.32,0,0,1-1.3,1.3h-28a1.26,1.26,0,0,1-1.3-1.3Z" transform="translate(-168.3 -272.7)"/><path class="cls-1" d="M438.7,315.4l1.8-2.9a1.64,1.64,0,0,1,2.4-.6c3.3,2.7,5.8,4.8,11.2,4.8,4.8,0,7.9-2.9,7.9-6.5,0-4.2-3.6-6.9-10.6-9.7-7.1-3-12.7-6.7-12.7-14.8,0-5.5,4.2-13,15.3-13a24,24,0,0,1,13,4.1,1.65,1.65,0,0,1,.4,2.4l-1.8,2.7a1.74,1.74,0,0,1-2.5.7c-2.7-1.8-5.4-3.5-9.5-3.5-5.9,0-7.9,3.7-7.9,6.3,0,4,3.1,6.4,8.9,8.8,8.1,3.3,15.1,7.1,15.1,15.7,0,7.3-6.5,13.2-15.6,13.2a23.5,23.5,0,0,1-15.1-5.5A1.42,1.42,0,0,1,438.7,315.4Z" transform="translate(-168.3 -272.7)"/><path class="cls-1" d="M487.9,273.8a1.3,1.3,0,0,1,1.3-1h1.1a1.64,1.64,0,0,1,1.2.8l14.6,35.8h.3L521,273.6a1.35,1.35,0,0,1,1.2-.8h1.1a1.52,1.52,0,0,1,1.3,1l8.6,47a1.2,1.2,0,0,1-1.3,1.6h-4.5a1.41,1.41,0,0,1-1.3-1l-5.2-31.3h-.2L508,322.4a1.24,1.24,0,0,1-1.2.8h-1.3a1.35,1.35,0,0,1-1.2-.8l-12.7-32.2h-.3l-5,31.3a1.41,1.41,0,0,1-1.3,1h-4.5a1.2,1.2,0,0,1-1.3-1.6Z" transform="translate(-168.3 -272.7)"/><path class="cls-1" d="M542.1,320.6l21.5-47.1a1.64,1.64,0,0,1,1.2-.8h.7a1.64,1.64,0,0,1,1.2.8l21.4,47.1a1.22,1.22,0,0,1-1.2,1.8h-4.4a1.62,1.62,0,0,1-1.6-1.1l-4.3-9.6H553.7l-4.3,9.6a1.8,1.8,0,0,1-1.6,1.1h-4.4C542.2,322.5,541.6,321.6,542.1,320.6Zm31.7-14.8-8.6-19.2h-.4l-8.5,19.2Z" transform="translate(-168.3 -272.7)"/><path class="cls-1" d="M596.9,274.8a1.32,1.32,0,0,1,1.3-1.3h19a15.17,15.17,0,0,1,15.3,15c0,6.4-4.3,11.8-10.4,14.2l9.6,17.8a1.3,1.3,0,0,1-1.2,2h-5.3a1.61,1.61,0,0,1-1.5-.9l-9.2-18.3H603.9v17.9a1.32,1.32,0,0,1-1.3,1.3H598a1.26,1.26,0,0,1-1.3-1.3V274.8Zm19.8,22.5a8.67,8.67,0,0,0,8.5-8.7,8.52,8.52,0,0,0-8.5-8.3H604.2v17Z" transform="translate(-168.3 -272.7)"/><path class="cls-1" d="M654,280H641.6a1.26,1.26,0,0,1-1.3-1.3v-3.9a1.32,1.32,0,0,1,1.3-1.3h32.1a1.26,1.26,0,0,1,1.3,1.3v3.9a1.32,1.32,0,0,1-1.3,1.3H661.3v41.1a1.32,1.32,0,0,1-1.3,1.3h-4.6a1.32,1.32,0,0,1-1.3-1.3V280Z" transform="translate(-168.3 -272.7)"/><path class="cls-2" d="M426.2,316a1.32,1.32,0,0,1,1.3,1.3v3.8a1.32,1.32,0,0,1-1.3,1.3H390a1.32,1.32,0,0,1-1.3-1.3v-3.8A1.32,1.32,0,0,1,390,316Z" transform="translate(-168.3 -272.7)"/><path class="cls-1" d="M421,303l-4.3-4.2a24.51,24.51,0,0,0,2.6-7.4c.1-.7-.1-1-1-1.1l-1.5-.1c-1.4-.1-1.4.5-1.5,1.2a14.89,14.89,0,0,1-1.5,4.5l-9.6-9.6-.6-.6c-1.5-1.5-2.7-2.9-2.7-4.6A3.94,3.94,0,0,1,405,277c2.8,0,4.5,1.8,4.5,3.8a1.48,1.48,0,0,1-.1.7c-.1.9.1,1.2,1.5,1.2h1.6c.9,0,.9-.5,1-1.2a7.75,7.75,0,0,0,.1-.9c0-4-3.3-7.2-8.4-7.2-4.7,0-8.5,3.3-8.5,7.6,0,2.7,1.5,4.7,3.2,6.6l1.1,1.2v.1c-1.7,1-6.4,3.7-6.4,9.3,0,4.6,3.5,8.6,9.3,8.6a13.3,13.3,0,0,0,10.1-4.3l3.7,3.7a1.34,1.34,0,0,0,2,.1l1.2-1.2C421.9,304.1,421.5,303.6,421,303Zm-16.7-.1a5,5,0,0,1-5.3-5c0-3.7,3.1-5.6,4.5-6.5l7.7,8.1A8.69,8.69,0,0,1,404.3,302.9Z" transform="translate(-168.3 -272.7)"/></svg>
