<svg width="405" height="98" viewBox="0 0 405 98" xmlns="http://www.w3.org/2000/svg">
    <style type="text/css">
        .st0{fill:#144578;}
        .st1{fill:#3499CC;}
    </style>
    <path d="m216.2,90.1l-2.4,0l0,-3.2l-8.3,0l0,3.2l-2.4,0l0,-6.5c0,-1 0.2,-1.8 0.5,-2.6s0.8,-1.5 1.4,-2.1c0.6,-0.6 1.3,-1 2.1,-1.3c0.8,-0.3 1.7,-0.5 2.6,-0.5l5.3,0c0.2,0 0.3,0 0.5,0.1c0.1,0.1 0.3,0.1 0.4,0.3c0.1,0.1 0.2,0.2 0.3,0.4c0.1,0.1 0.1,0.3 0.1,0.5l0,11.7l-0.1,0zm-10.6,-5.6l8.3,0l0,-5.1l-4.1,0c-0.1,0 -0.2,0 -0.5,0c-0.2,0 -0.5,0.1 -0.8,0.2c-0.3,0.1 -0.6,0.2 -1,0.4s-0.7,0.4 -0.9,0.7s-0.5,0.7 -0.7,1.2s-0.3,1 -0.3,1.7l0,0.9z" class="st0"/>
    <path d="m229.4,88.9c0,0.2 0,0.3 -0.1,0.5c-0.1,0.1 -0.1,0.3 -0.3,0.4c-0.1,0.1 -0.2,0.2 -0.4,0.3c-0.1,0.1 -0.3,0.1 -0.5,0.1l-5.3,0c-0.3,0 -0.6,0 -0.9,-0.1c-0.3,-0.1 -0.7,-0.2 -1,-0.3s-0.6,-0.3 -0.9,-0.6c-0.3,-0.2 -0.6,-0.5 -0.8,-0.8c-0.2,-0.3 -0.4,-0.7 -0.5,-1.1c-0.1,-0.4 -0.2,-0.9 -0.2,-1.4l0,-5.4l2.4,0l0,5.4c0,0.3 0.1,0.6 0.2,0.8c0.1,0.2 0.3,0.5 0.4,0.6s0.4,0.3 0.6,0.4s0.5,0.1 0.8,0.1l4.1,0l0,-7.5l2.4,0l0,8.6z" class="st0"/>
    <path d="m240.5,82.6l-4.1,0l0,7.5l-2.4,0l0,-7.5l-3,0l0,-2.4l3.1,0l0,-3.2l2.4,0l0,3.2l4.1,0l0,2.4l-0.1,0z" class="st0"/>
    <path d="m252.7,86.8c0,0.4 -0.1,0.8 -0.2,1.1c-0.1,0.3 -0.2,0.6 -0.4,0.9c-0.2,0.2 -0.4,0.5 -0.6,0.6c-0.2,0.2 -0.5,0.3 -0.7,0.4c-0.2,0.1 -0.5,0.2 -0.7,0.2s-0.5,0.1 -0.7,0.1l-4.3,0c-0.3,0 -0.7,-0.1 -1.1,-0.2c-0.4,-0.1 -0.7,-0.3 -1.1,-0.6c-0.3,-0.3 -0.6,-0.6 -0.8,-1s-0.3,-0.9 -0.3,-1.5l0,-3.2c0,-0.6 0.1,-1.1 0.3,-1.5s0.5,-0.8 0.8,-1c0.3,-0.3 0.7,-0.5 1.1,-0.6c0.4,-0.1 0.7,-0.2 1.1,-0.2l4.3,0c0.6,0 1.1,0.1 1.5,0.3c0.4,0.2 0.8,0.5 1,0.8c0.3,0.3 0.5,0.7 0.6,1.1c0.1,0.4 0.2,0.7 0.2,1.1l0,3.2zm-2.3,-3.2c0,-0.3 -0.1,-0.6 -0.2,-0.7c-0.2,-0.2 -0.4,-0.2 -0.7,-0.2l-4.2,0c-0.3,0 -0.6,0.1 -0.7,0.2c-0.2,0.2 -0.2,0.4 -0.2,0.7l0,3.2c0,0.3 0.1,0.5 0.2,0.7c0.2,0.2 0.4,0.2 0.7,0.2l4.2,0c0.3,0 0.6,-0.1 0.7,-0.2c0.2,-0.2 0.2,-0.4 0.2,-0.7l0,-3.2z" class="st0"/>
    <path d="m263.5,90.1l-2.4,0l0,-6.5c0,-0.3 -0.1,-0.5 -0.2,-0.7c-0.2,-0.2 -0.4,-0.2 -0.7,-0.2l-3.1,0l0,7.5l-2.4,0l0,-8.6c0,-0.2 0,-0.3 0.1,-0.5c0.1,-0.1 0.1,-0.3 0.3,-0.4c0.1,-0.1 0.2,-0.2 0.4,-0.2s0.3,-0.1 0.5,-0.1l4.3,0c0.3,0 0.7,0.1 1.1,0.2c0.4,0.1 0.7,0.3 1.1,0.6l0,-0.7l3.2,0c0.2,0 0.5,0 0.7,0.1c0.2,0.1 0.5,0.1 0.7,0.2c0.2,0.1 0.5,0.3 0.7,0.4c0.2,0.2 0.4,0.4 0.6,0.6c0.2,0.2 0.3,0.5 0.4,0.8c0.1,0.3 0.2,0.7 0.2,1.1l0,6.5l-2.4,0l0,-6.5c0,-0.3 -0.1,-0.5 -0.2,-0.7c-0.2,-0.2 -0.4,-0.2 -0.7,-0.2l-2.1,0c0.1,0.3 0.1,0.6 0.1,0.9l0,6.4l-0.2,0z" class="st0"/>
    <path d="m281.1,86.8c0,0.3 -0.1,0.7 -0.2,1.1c-0.1,0.4 -0.3,0.7 -0.6,1.1c-0.3,0.3 -0.6,0.6 -1,0.8c-0.4,0.2 -0.9,0.3 -1.5,0.3l-4.3,0c-0.3,0 -0.7,-0.1 -1.1,-0.2c-0.4,-0.1 -0.7,-0.3 -1.1,-0.6c-0.3,-0.3 -0.6,-0.6 -0.8,-1c-0.2,-0.4 -0.3,-0.9 -0.3,-1.5c0,-0.3 0.1,-0.7 0.2,-1.1c0.1,-0.4 0.3,-0.7 0.6,-1.1c0.3,-0.3 0.6,-0.6 1,-0.8c0.4,-0.2 0.9,-0.3 1.5,-0.3l4.3,0l0,2.3l-4.3,0c-0.3,0 -0.6,0.1 -0.7,0.3c-0.2,0.2 -0.3,0.4 -0.3,0.7c0,0.3 0.1,0.5 0.3,0.7c0.2,0.2 0.4,0.3 0.7,0.3l4.2,0c0.3,0 0.6,-0.1 0.7,-0.3c0.2,-0.2 0.3,-0.4 0.3,-0.7l0,-3.3c0,-0.3 -0.1,-0.6 -0.3,-0.7c-0.2,-0.2 -0.4,-0.3 -0.7,-0.3l-5.2,0l0,-2.2l5.2,0c0.3,0 0.7,0.1 1.1,0.2c0.4,0.1 0.7,0.3 1.1,0.6c0.3,0.3 0.6,0.6 0.8,1c0.2,0.4 0.3,0.9 0.3,1.5l0,3.2l0.1,0z" class="st0"/>
    <path d="m292,82.6l-4.1,0l0,7.5l-2.4,0l0,-7.5l-3.1,0l0,-2.4l3.1,0l0,-3.2l2.4,0l0,3.2l4.1,0l0,2.4z" class="st0"/>
    <path d="m304.1,83.5c0,0.3 -0.1,0.7 -0.2,1.1c-0.1,0.4 -0.3,0.7 -0.6,1.1c-0.3,0.3 -0.6,0.6 -1,0.8c-0.4,0.2 -0.9,0.3 -1.5,0.3l-4.3,0l0,-2.2l4.3,0c0.3,0 0.6,-0.1 0.7,-0.3s0.3,-0.4 0.3,-0.7c0,-0.3 -0.1,-0.6 -0.3,-0.7c-0.2,-0.2 -0.4,-0.3 -0.7,-0.3l-4.3,0c-0.3,0 -0.6,0.1 -0.7,0.3c-0.2,0.2 -0.3,0.4 -0.3,0.7l0,3.3c0,0.3 0.1,0.6 0.3,0.7c0.2,0.2 0.4,0.3 0.7,0.3l4.2,0l0,2.3l-4.3,0c-0.3,0 -0.7,-0.1 -1.1,-0.2c-0.4,-0.1 -0.7,-0.3 -1.1,-0.6c-0.3,-0.3 -0.6,-0.6 -0.8,-1c-0.2,-0.4 -0.3,-0.9 -0.3,-1.5l0,-3.3c0,-0.3 0.1,-0.7 0.2,-1.1c0.1,-0.4 0.3,-0.7 0.6,-1.1c0.3,-0.3 0.6,-0.6 1,-0.8c0.4,-0.2 0.9,-0.3 1.5,-0.3l4.3,0c0.3,0 0.7,0.1 1.1,0.2c0.4,0.1 0.7,0.3 1.1,0.6c0.3,0.3 0.6,0.6 0.8,1c0.3,0.3 0.4,0.8 0.4,1.4z" class="st0"/>
    <path d="m319.2,90.1l-4.2,0c-0.3,0 -0.7,-0.1 -1.1,-0.2c-0.4,-0.1 -0.7,-0.3 -1.1,-0.6c-0.3,-0.3 -0.6,-0.6 -0.8,-1s-0.3,-0.9 -0.3,-1.5l0,-6.5l2.4,0l0,6.5c0,0.3 0.1,0.5 0.2,0.7c0.2,0.2 0.4,0.2 0.7,0.2l4.2,0l0,2.4zm3.3,0.9c0,0.4 -0.1,0.8 -0.2,1.1c-0.1,0.3 -0.2,0.6 -0.4,0.9c-0.2,0.2 -0.4,0.5 -0.6,0.6c-0.2,0.2 -0.5,0.3 -0.7,0.4s-0.5,0.2 -0.7,0.2c-0.2,0.1 -0.5,0.1 -0.7,0.1l-4.2,0l0,-2.3l4.3,0c0.3,0 0.6,-0.1 0.7,-0.2c0.2,-0.2 0.2,-0.4 0.2,-0.7l0,-10.8l2.4,0l0,10.7l-0.1,0z" class="st0"/>
    <path d="m335.5,86.8c0,0.4 -0.1,0.8 -0.2,1.1c-0.1,0.3 -0.2,0.6 -0.4,0.9c-0.2,0.2 -0.4,0.5 -0.6,0.6c-0.2,0.2 -0.5,0.3 -0.7,0.4c-0.2,0.1 -0.5,0.2 -0.7,0.2s-0.5,0.1 -0.7,0.1l-4.3,0c-0.3,0 -0.7,-0.1 -1.1,-0.2c-0.4,-0.1 -0.7,-0.3 -1.1,-0.6c-0.3,-0.3 -0.6,-0.6 -0.8,-1s-0.3,-0.9 -0.3,-1.5l0,-3.2c0,-0.6 0.1,-1.1 0.3,-1.5s0.5,-0.8 0.8,-1c0.3,-0.3 0.7,-0.5 1.1,-0.6c0.4,-0.1 0.7,-0.2 1.1,-0.2l4.3,0c0.6,0 1.1,0.1 1.5,0.3c0.4,0.2 0.8,0.5 1,0.8c0.3,0.3 0.5,0.7 0.6,1.1c0.1,0.4 0.2,0.7 0.2,1.1l0,3.2zm-2.4,-3.2c0,-0.3 -0.1,-0.6 -0.2,-0.7c-0.2,-0.2 -0.4,-0.2 -0.7,-0.2l-4.2,0c-0.3,0 -0.6,0.1 -0.7,0.2c-0.2,0.2 -0.2,0.4 -0.2,0.7l0,3.2c0,0.3 0.1,0.5 0.2,0.7c0.2,0.2 0.4,0.2 0.7,0.2l4.2,0c0.3,0 0.6,-0.1 0.7,-0.2c0.2,-0.2 0.2,-0.4 0.2,-0.7l0,-3.2z" class="st0"/>
    <path d="m348.2,88.9c0,0.2 0,0.3 -0.1,0.5c-0.1,0.1 -0.1,0.3 -0.3,0.4c-0.1,0.1 -0.2,0.2 -0.4,0.3c-0.1,0.1 -0.3,0.1 -0.5,0.1l-5.3,0c-0.3,0 -0.6,0 -0.9,-0.1c-0.3,-0.1 -0.7,-0.2 -1,-0.3s-0.6,-0.3 -0.9,-0.6c-0.3,-0.2 -0.6,-0.5 -0.8,-0.8c-0.2,-0.3 -0.4,-0.7 -0.5,-1.1c-0.1,-0.4 -0.2,-0.9 -0.2,-1.4l0,-5.4l2.4,0l0,5.4c0,0.3 0.1,0.6 0.2,0.8c0.1,0.2 0.3,0.5 0.4,0.6s0.4,0.3 0.6,0.4s0.5,0.1 0.8,0.1l4.1,0l0,-7.5l2.4,0l0,8.6z" class="st0"/>
    <path d="m359,82.6l-5.3,0c-0.3,0 -0.6,0.1 -0.7,0.2c-0.2,0.2 -0.2,0.4 -0.2,0.7l0,6.5l-2.4,0l0,-6.5c0,-0.4 0.1,-0.8 0.2,-1.1c0.1,-0.3 0.2,-0.6 0.4,-0.8c0.2,-0.2 0.4,-0.5 0.6,-0.6c0.2,-0.2 0.5,-0.3 0.7,-0.4c0.2,-0.1 0.5,-0.2 0.7,-0.2c0.3,-0.1 0.5,-0.1 0.7,-0.1l5.3,0l0,2.3z" class="st0"/>
    <path d="m370.8,90.1l-1.1,0c-0.3,0 -0.7,-0.1 -1.1,-0.2c-0.4,-0.1 -0.7,-0.3 -1.1,-0.6c-0.3,-0.3 -0.6,-0.6 -0.8,-1s-0.3,-0.9 -0.3,-1.5l0,-10.7l2.4,0l0,10.7c0,0.3 0.1,0.5 0.3,0.7c0.2,0.2 0.4,0.3 0.7,0.3l1.1,0l0,2.3l-0.1,0z" class="st0"/>
    <path d="m374.7,78.2l-2.4,0l0,-2.1l2.4,0l0,2.1zm0,11.9l-2.4,0l0,-9.8l2.4,0l0,9.8z" class="st0"/>
    <path d="m385.6,78.4l-5.3,0c-0.3,0 -0.6,0.1 -0.7,0.2c-0.2,0.2 -0.2,0.4 -0.2,0.7l0,10.8l-2.4,0l0,-10.8c0,-0.4 0.1,-0.8 0.2,-1.1c0.1,-0.3 0.2,-0.6 0.4,-0.8c0.2,-0.2 0.4,-0.5 0.6,-0.6c0.2,-0.2 0.5,-0.3 0.7,-0.4c0.2,-0.1 0.5,-0.2 0.7,-0.2c0.2,-0.1 0.5,-0.1 0.7,-0.1l5.3,0l0,2.3zm0,4.2l-5.3,0l0,-2.4l5.3,0l0,2.4z" class="st0"/>
    <path d="m397.7,83.5c0,0.3 -0.1,0.7 -0.2,1.1c-0.1,0.4 -0.3,0.7 -0.6,1.1c-0.3,0.3 -0.6,0.6 -1,0.8c-0.4,0.2 -0.9,0.3 -1.5,0.3l-4.3,0l0,-2.2l4.3,0c0.3,0 0.6,-0.1 0.7,-0.3s0.3,-0.4 0.3,-0.7c0,-0.3 -0.1,-0.6 -0.3,-0.7c-0.2,-0.2 -0.4,-0.3 -0.7,-0.3l-4.3,0c-0.3,0 -0.6,0.1 -0.7,0.3c-0.2,0.2 -0.3,0.4 -0.3,0.7l0,3.3c0,0.3 0.1,0.6 0.3,0.7c0.2,0.2 0.4,0.3 0.7,0.3l4.2,0l0,2.3l-4.3,0c-0.3,0 -0.7,-0.1 -1.1,-0.2c-0.4,-0.1 -0.7,-0.3 -1.1,-0.6c-0.3,-0.3 -0.6,-0.6 -0.8,-1c-0.2,-0.4 -0.3,-0.9 -0.3,-1.5l0,-3.3c0,-0.3 0.1,-0.7 0.2,-1.1c0.1,-0.4 0.3,-0.7 0.6,-1.1c0.3,-0.3 0.6,-0.6 1,-0.8c0.4,-0.2 0.9,-0.3 1.5,-0.3l4.3,0c0.3,0 0.7,0.1 1.1,0.2c0.4,0.1 0.7,0.3 1.1,0.6c0.3,0.3 0.6,0.6 0.8,1c0.3,0.3 0.4,0.8 0.4,1.4z" class="st0"/>
    <path d="m144.6,57.5c0,1.3 -0.2,2.6 -0.6,4c-0.4,1.4 -1.1,2.8 -2.1,4c-1,1.2 -2.3,2.3 -3.8,3.1c-1.6,0.8 -3.5,1.2 -5.8,1.2l-38.6,0c-0.7,0 -1.4,-0.1 -2,-0.4c-0.6,-0.3 -1.2,-0.6 -1.6,-1.1c-0.5,-0.5 -0.8,-1 -1.1,-1.6c-0.3,-0.6 -0.4,-1.3 -0.4,-2l0,-45.9c0,-0.7 0.1,-1.4 0.4,-2c0.3,-0.6 0.6,-1.2 1.1,-1.6c0.5,-0.5 1,-0.8 1.6,-1.1c0.6,-0.3 1.3,-0.4 2,-0.4l34,0c1.3,0 2.6,0.2 4,0.7c1.4,0.4 2.8,1.2 4,2.1c1.2,1 2.3,2.3 3.1,3.8c0.8,1.6 1.2,3.5 1.2,5.8l0,1.9c0,1.8 -0.3,3.7 -0.9,5.8c-0.6,2.1 -1.6,4 -2.9,5.9c1.1,0.7 2.2,1.6 3.2,2.5c1,1 1.9,2.1 2.6,3.4c0.8,1.3 1.4,2.8 1.8,4.4c0.4,1.6 0.7,3.5 0.7,5.4l0,2.1l0.1,0zm-10.2,-2c0,-1.3 -0.2,-2.5 -0.6,-3.6c-0.4,-1.1 -1,-2 -1.8,-2.7c-0.8,-0.8 -1.7,-1.3 -2.7,-1.7c-1.1,-0.4 -2.3,-0.6 -3.6,-0.6l-22.9,0l0,-10.3l18.4,0c1.3,0 2.5,-0.2 3.6,-0.6c1.1,-0.4 2,-1 2.7,-1.7c0.8,-0.8 1.3,-1.7 1.7,-2.7c0.4,-1.1 0.6,-2.3 0.6,-3.6l0,-2c0,-1.5 -0.7,-2.2 -2.1,-2.2l-29,0l0,35.8l33.6,0c0.2,0 0.4,0 0.7,0c0.3,0 0.5,-0.1 0.7,-0.2c0.2,-0.1 0.4,-0.4 0.5,-0.7c0.2,-0.3 0.2,-0.7 0.2,-1.3l0,-1.9z" class="st1"/>
    <path d="m189.9,37.7l-22.9,0c-1.4,0 -2.4,0.3 -3.1,1c-0.7,0.7 -1.1,1.7 -1.1,3l0,28.1l-10.2,0l0,-28.1c0,-1.7 0.2,-3.3 0.7,-4.7c0.4,-1.4 1,-2.6 1.8,-3.7c0.7,-1.1 1.6,-2 2.6,-2.7c1,-0.7 2,-1.4 3,-1.8c1.1,-0.5 2.1,-0.8 3.2,-1c1.1,-0.2 2.1,-0.3 3,-0.3l23,0l0,10.2z" class="st1"/>
    <path d="m243.1,55.5c0,1.7 -0.2,3.3 -0.7,4.7c-0.4,1.4 -1,2.6 -1.8,3.7c-0.7,1.1 -1.6,2 -2.5,2.7c-1,0.7 -2,1.4 -3,1.8c-1.1,0.5 -2.1,0.8 -3.2,1c-1.1,0.2 -2.1,0.3 -3.1,0.3l-18.4,0c-1.4,0 -2.9,-0.2 -4.6,-0.7c-1.7,-0.5 -3.2,-1.3 -4.6,-2.4c-1.4,-1.1 -2.6,-2.6 -3.6,-4.4c-1,-1.8 -1.4,-4 -1.4,-6.7l0,-13.8c0,-2.6 0.5,-4.8 1.4,-6.6c1,-1.8 2.1,-3.3 3.6,-4.4c1.4,-1.1 3,-2 4.6,-2.4c1.7,-0.5 3.2,-0.7 4.6,-0.7l18.4,0c2.6,0 4.8,0.5 6.7,1.4c1.8,0.9 3.3,2.1 4.4,3.5c1.1,1.4 1.9,3 2.4,4.6c0.5,1.7 0.8,3.2 0.8,4.7l0,13.7zm-10.1,-13.7c0,-1.4 -0.4,-2.5 -1.1,-3.1c-0.7,-0.7 -1.7,-1 -3.1,-1l-18.3,0c-1.4,0 -2.4,0.3 -3.1,1c-0.7,0.7 -1.1,1.7 -1.1,3l0,13.8c0,1.3 0.4,2.3 1.1,3.1c0.7,0.7 1.7,1.1 3.1,1.1l18.3,0c1.4,0 2.4,-0.4 3.1,-1.1c0.7,-0.7 1,-1.7 1,-3.1l0,-13.7l0.1,0z" class="st1"/>
    <path d="m262.8,13.6l-10.2,0l0,2.5c3.4,0 6.8,-0.1 10.2,-0.2l0,-2.3z" class="st1"/>
    <path d="m252.6,16.1l0,53.7l10.2,0l0,-54.3c-3.4,0.2 -6.8,0.5 -10.2,0.6z" class="st1"/>
    <path d="m302.1,27.4l-16.3,0l-18.6,15c-0.6,0.4 -1,1 -1.4,1.6c-0.3,0.6 -0.5,1.3 -0.6,2.1c-0.1,1.6 0.5,2.9 1.6,3.9l20.5,19.8l14.7,0l-24,-23.1l24.1,-19.3z" class="st1"/>
    <path d="m352.6,41.5c0,1.4 -0.2,2.9 -0.7,4.6c-0.5,1.6 -1.3,3.1 -2.4,4.5c-1.1,1.4 -2.6,2.6 -4.3,3.5c-1.8,0.9 -4,1.4 -6.5,1.4l-18.4,0l0,-9.7l18.4,0c1.4,0 2.5,-0.4 3.2,-1.3c0.8,-0.8 1.1,-1.9 1.1,-3.2c0,-1.3 -0.4,-2.4 -1.3,-3.1c-0.8,-0.8 -1.9,-1.1 -3.1,-1.1l-18.4,0c-1.4,0 -2.5,0.4 -3.2,1.3c-0.8,0.8 -1.1,1.9 -1.1,3.2l0,14.2c0,1.4 0.4,2.4 1.3,3.2s1.9,1.1 3.2,1.1l18.3,0l0,9.7l-18.4,0c-1.4,0 -2.9,-0.2 -4.6,-0.7c-1.6,-0.5 -3.1,-1.3 -4.5,-2.4c-1.4,-1.1 -2.6,-2.6 -3.5,-4.3c-0.9,-1.8 -1.4,-4 -1.4,-6.5l0,-14.3c0,-1.4 0.2,-2.9 0.7,-4.6c0.5,-1.6 1.3,-3.1 2.4,-4.5c1.1,-1.4 2.6,-2.6 4.3,-3.5c1.8,-0.9 4,-1.4 6.5,-1.4l18.4,0c1.4,0 2.9,0.2 4.6,0.7c1.6,0.5 3.1,1.3 4.5,2.4c1.4,1.1 2.6,2.6 3.5,4.3c1,1.8 1.4,3.9 1.4,6.5z" class="st1"/>
    <path d="m397.1,37.7l-22.9,0c-1.4,0 -2.4,0.3 -3.1,1c-0.7,0.7 -1.1,1.7 -1.1,3l0,28.1l-10.2,0l0,-28.1c0,-1.7 0.2,-3.3 0.7,-4.7c0.4,-1.4 1,-2.6 1.8,-3.7c0.7,-1.1 1.6,-2 2.6,-2.7s2,-1.4 3,-1.8c1.1,-0.5 2.1,-0.8 3.2,-1c1.1,-0.2 2.1,-0.3 3,-0.3l23,0l0,10.2z" class="st1"/>
    <path d="m49.3,14.8l0,10.8c11.4,3.5 18.9,13.9 18.9,26.4c0,15.4 -12.6,27.9 -28.1,27.9s-28,-12.5 -28,-27.9c0,-12.5 7.5,-22.8 18.9,-26.4l0,-10.8c-16.9,3.8 -28.7,18.9 -28.7,37.1c0,21.1 16.9,38.3 37.9,38.3s37.8,-17.1 37.8,-38.2c0,-18.2 -11.8,-33.4 -28.7,-37.2z" class="st0"/>
    <path d="m40.2,24.1c1.9,0 3.8,0.2 5.7,0.6l0,-10.3c-1.9,-0.3 -3.8,-0.4 -5.7,-0.4s-3.8,0.1 -5.7,0.4l0,10.3c1.8,-0.4 3.7,-0.6 5.7,-0.6z" class="st1"/>
    <path d="m35,28c1.4,-0.3 3.2,-0.5 5.3,-0.5c2.1,0 4,0.2 5.4,0.5c0,15.9 0,31.9 0,47.8c-3.6,0.8 -7.1,0.8 -10.7,0c0,-15.8 0,-31.8 0,-47.8z" class="st1"/>
    <g stroke="null">
        <path stroke="#000000" d="m38.6545,2.70531c-2.65609,0.73102 -5.37863,2.18479 -7.29385,3.59241c-1.91522,1.40761 -6.91806,4.95444 -8.06023,6.07835c-1.1074,1.08971 -2.41548,1.46982 -2.98788,2.81259c-0.22075,0.51784 1.49689,2.07995 1.83347,2.24213c0.87349,0.42088 2.29728,-0.32541 2.94697,-0.36998c2.1085,-0.14465 4.26923,-0.42522 6.40477,1.02014c-0.39515,0.39893 0.23233,-0.03055 -0.57541,3.4683c-0.28484,1.23382 -0.90728,4.43483 -0.14246,5.04556c0.75989,0.60679 1.22399,-1.75864 1.97898,-1.39648c-0.00038,0.00056 -0.00016,0.00199 -0.00043,0.0025c-0.00016,0.00045 -0.00037,0.0021 -0.00043,0.0025c0.00004,0.00035 -0.00058,0.0022 -0.00043,0.0025c0.00025,0.00024 0.00199,0.00027 0.00235,0.00046c0.0023,0.00068 0.00734,0.00034 0.01217,-0.00022c0.00142,0.00068 0.00327,0.00023 0.0047,0.00091c0.00534,0.00257 0.0102,0.00559 0.01558,0.00818l0.00449,-0.01203c0.35742,-0.09237 3.14403,-1.32006 5.68791,-0.82639c1.43402,0.27828 3.72123,-0.50187 5.03702,-0.90884c2.08665,-0.64539 5.01601,-1.22862 6.87431,-1.26192c1.36895,-0.02453 2.60756,-0.79955 3.92457,-0.8899c0.777,-0.0533 0.05654,-2.5583 0.04048,-2.82292c-0.07718,-1.27179 -1.66027,-3.22603 -2.4756,-4.9627c-0.81533,-1.73667 -2.18174,-3.94124 -3.68668,-5.66995c-1.50493,-1.72871 -3.53524,-3.96717 -4.96474,-4.65596c-1.4295,-0.68879 -1.69695,-1.29262 -4.57964,-0.49923z" id="path1309" stroke-width="0.83349px" fill-rule="evenodd" fill="#d00000"/>
        <path stroke="null" d="m32.30768,8.80762c-1.72337,0.41746 -3.1993,5.92565 -5.32332,6.88318c-1.3892,0.62627 -5.17493,1.57781 -4.83835,1.73999c0.87349,0.42088 2.29728,-0.32541 2.94697,-0.36998c2.1085,-0.14465 4.26923,-0.42522 6.40477,1.02014c-0.39515,0.39893 0.23233,-0.03055 -0.57541,3.4683c-0.28484,1.23382 -0.90728,4.43483 -0.14246,5.04556c0.75989,0.60679 1.22399,-1.75864 1.97898,-1.39648c-0.00038,0.00056 -0.00016,0.00199 -0.00043,0.0025c-0.00016,0.00045 -0.00037,0.0021 -0.00043,0.0025c0.00004,0.00035 -0.00058,0.0022 -0.00043,0.0025c0.00025,0.00024 0.00199,0.00027 0.00235,0.00046c0.0023,0.00068 0.00734,0.00034 0.01217,-0.00022c0.00142,0.00068 0.00327,0.00023 0.0047,0.00091c0.00534,0.00257 0.0102,0.00559 0.01558,0.00818l0.00449,-0.01203c0.35742,-0.09237 3.14403,-1.32006 5.68791,-0.82639c1.43402,0.27828 3.72123,-0.50187 5.03702,-0.90884c2.08665,-0.64539 5.01601,-1.22862 6.87431,-1.26192c1.36895,-0.02453 2.60756,-0.79955 3.92457,-0.8899c0.777,-0.0533 -4.82863,0.42729 -2.59456,-1.18867c0.99108,-0.71688 -9.92317,1.49416 -14.1133,-3.28713c-4.14903,-4.73439 -3.54031,-8.46015 -5.30513,-8.03265z" id="path5882" stroke-width="1px" fill-rule="evenodd" fill="#0e0000" opacity="0.10112"/>
        <path stroke="#000000" d="m20.48949,14.60066c0.33563,0.2224 2.58968,3.07353 2.85597,2.87398c0.03219,-0.31484 -0.23069,-0.43877 -0.41562,-0.47472c0.24761,-0.31468 0.29429,-0.64374 -0.1354,-0.67201c-0.4764,-0.08412 -0.99649,-0.14314 -0.48513,-0.65559c0.2361,-0.28722 -0.01587,-0.79729 -0.16085,-1.05674c-0.38087,-0.20571 -0.66788,-0.57793 -0.824,-0.83096" id="path5878" stroke-miterlimit="4" stroke-width="0.83016" fill-rule="evenodd" fill="#000000" opacity="0.26966"/>
        <path stroke="#000000" d="m51.08346,20.74019c-0.7043,-0.24978 -1.58806,-0.53828 -2.2108,-0.49977c-0.42771,-0.3613 -0.756,0.08392 -1.12658,0.20242c-0.06219,-0.69565 -1.088,0.29418 -1.53987,0.29987c-0.32085,0.18416 -0.0997,-0.54827 -0.67427,-0.26968c-0.71435,0.06749 -1.15622,0.11657 -1.68614,0.34599c-0.12729,0.75738 -1.27122,1.18403 -1.44243,0.35391c-0.6237,0.27141 -1.7835,0.79787 -1.79101,-0.06065c-0.99855,0.7745 -1.03031,1.47437 -2.00515,1.84817c0.08626,-0.67036 -2.11449,-1.03104 -2.41448,-0.32749c-0.60395,0.24321 0.12563,-0.88103 -0.74715,-0.57207c-0.98308,-0.28582 -0.41089,1.6952 -2.41535,0.88528c-1.11607,-0.0359 -0.498,1.58032 -1.23455,2.25737c-0.19623,0.71196 -1.04763,-0.24803 -1.39223,-0.19472c0.08015,1.12731 0.3221,0.74504 0.06798,1.51201c-0.15163,0.96084 -0.35458,1.44196 0.70246,1.64205c0.34228,-0.46349 -0.01721,-0.2674 0.05935,0.58768c0.61038,-0.17768 1.41274,-1.19474 1.33039,-0.14948c0.41419,-0.63077 1.72542,-0.95952 1.70893,-1.63891c0.66371,0.06967 1.40858,0.81094 1.96885,-0.09008c0.56247,-0.66554 1.37097,-0.97421 1.37946,-0.46018c0.68374,0.63863 0.75213,0.50921 1.46299,0.34668c-0.1831,-0.82343 1.66351,-0.05658 0.68837,-0.87637c0.38731,-0.38786 1.43553,-0.61452 2.04129,-0.47973c0.53588,0.78019 2.16869,0.84475 2.42275,-0.16513c0.05331,-0.79438 1.29326,-1.06608 1.75688,-0.51686c0.80623,-0.70688 2.07797,0.32028 2.77174,-0.22158c-0.62361,-0.80938 0.88135,-1.33824 1.16241,-0.7177c0.55216,-0.29648 1.06601,-1.36326 1.67003,-0.59953c0.69472,-0.2264 1.54302,-0.54119 2.13071,-0.77713c0.4411,0.72716 1.58297,-0.0209 1.08799,-0.901c-0.26795,-0.62863 0.87996,0.3095 0.56745,-0.48807c-0.35548,-0.85796 -0.85472,-2.05033 -1.46638,-2.01091c-0.83296,-0.20812 -1.32685,0.35397 -1.36143,1.14942c-0.01053,-0.58047 -0.99457,-0.01465 -1.51075,0.19584l-0.28298,0.06732l-0.33809,-0.23847" id="path5003" stroke-width="0.60143px" fill-rule="evenodd" fill="#000000" opacity="0.29405"/>
        <path stroke="#000000" d="m51.54913,20.95232c-0.7043,-0.24978 -1.35696,-0.2849 -1.97971,-0.24638c-0.42771,-0.36131 -0.93528,-0.24282 -1.30586,-0.12431c-0.06219,-0.69565 -0.90873,0.62091 -1.36059,0.6266c-0.32085,0.18416 -0.0997,-0.54827 -0.67427,-0.26968c-0.71435,0.06749 -1.54249,-0.37546 -2.07241,-0.14603c-0.12729,0.75738 -1.27122,1.18403 -1.44243,0.35391c-0.6237,0.27141 -1.39723,1.2899 -1.40474,0.43138c-1.1706,-0.05132 -1.67208,1.09959 -2.64692,1.47338c0.08626,-0.67036 -1.47272,-0.65625 -1.77271,0.0473c-0.60395,0.24321 -0.16061,-1.27023 -1.03338,-0.96127c-0.98307,-0.28582 -0.95624,1.67278 -2.12911,1.27448c-1.11607,-0.0359 -0.9602,1.07356 -1.69675,1.75061c-0.19623,0.71196 -0.58543,0.25874 -0.93003,0.31204c0.56704,0.80473 -1.73849,0.63711 -1.05405,1.87816c-0.15163,0.96084 0.0802,1.65146 1.13723,1.85155c0.34228,-0.46349 0.67005,-0.84304 0.74661,0.01204c0.61038,-0.17768 1.41274,-1.19474 1.33039,-0.14948c0.41419,-0.63077 1.72542,-0.95952 1.70893,-1.63891c0.66371,0.06967 1.40858,0.81094 1.96885,-0.09008c0.56247,-0.66554 0.65536,-0.1225 0.66385,0.39153c0.68374,0.63863 1.46774,-0.3425 2.17861,-0.50503c-0.1831,-0.82343 1.66351,-0.05658 0.68837,-0.87637c0.38731,-0.38786 1.43553,-0.61452 2.04129,-0.47973c0.53151,0.50418 2.16869,0.84475 2.42275,-0.16513c0.05331,-0.79438 1.29326,-1.06608 1.75688,-0.51686c0.80623,-0.70688 2.07797,0.32028 2.77174,-0.22157c-0.62361,-0.80938 0.88135,-1.33824 1.16241,-0.7177c0.55216,-0.29648 1.06601,-1.36326 1.67003,-0.59953c0.69471,-0.2264 1.54302,-0.54119 2.13071,-0.77713c0.4411,0.72716 1.58297,-0.0209 1.08799,-0.901c-0.26795,-0.62863 0.87996,0.3095 0.56746,-0.48807c0.00698,-0.91274 -0.33679,-2.32518 -1.46638,-2.01091c-0.83296,-0.20812 -1.32685,0.35397 -1.36143,1.14942c-0.01053,-0.58047 -1.3257,-0.37086 -1.84188,-0.16037l-0.16909,0.08943l-0.12085,0.09563" id="path1307" stroke-width="0.60143px" fill-rule="evenodd" fill="#ffffff"/>
        <path stroke="#000000" d="m31.24187,19.91804c0.29681,-3.86094 2.24822,-5.61929 1.90472,-8.70732c-0.20304,-1.82524 -1.84665,-0.44167 -1.31094,1.27052" id="path3126" stroke-width="0.83349px" fill-rule="evenodd" fill-opacity="0.75" fill="none"/>
        <path stroke="null" d="m32.02623,25.18573c-0.19623,0.71196 -0.58543,0.25873 -0.93003,0.31204c0.56704,0.80473 -1.73849,0.63711 -1.05405,1.87817c-0.15162,0.96084 0.0802,1.65145 1.13724,1.85155c0.34228,-0.46349 0.67005,-0.84304 0.74661,0.01204c0.61038,-0.17768 1.41274,-1.19474 1.33039,-0.14948c0.41419,-0.63076 1.72542,-0.95952 1.70893,-1.63891c0.66371,0.06967 1.37678,0.6947 1.93705,-0.20632c0.56247,-0.66554 0.68717,-0.00626 0.69566,0.50777c0.68374,0.63863 1.46774,-0.3425 2.17861,-0.50502c-0.18311,-0.82343 0.83806,-0.14606 0.68837,-0.87637c-0.09804,-0.47829 3.18015,-0.33669 2.70866,-0.80442c-1.40892,-1.39766 -3.60986,0.70816 -3.92829,0.57375c-0.31843,-0.13441 -0.67027,-0.05289 -0.22542,-0.25703c0.44485,-0.20413 -0.63731,0.13162 -1.53856,-0.18851c-0.90125,-0.32013 -1.56095,0.08459 -1.62116,0.88309c-0.67883,-0.42219 -0.72746,0.05736 -1.78504,0.35143c0.67388,-0.98517 -1.19093,-0.26171 -1.19093,-0.26171c0,0 0.3249,-1.08018 -0.25893,-0.93761c0.31387,-0.56374 -0.03449,-0.73741 -0.03449,-0.73741c0,0 0.17194,-0.48409 -0.56461,0.19296z" id="path3249" stroke-width="0.72157px" fill-rule="evenodd" fill="#000000" opacity="0.11236"/>
        <path stroke="#000000" d="m20.96414,13.80789c-0.12304,-0.21913 -0.5064,-0.27946 -0.55573,-0.46529c0.08568,-0.21583 -0.25134,-0.05928 -0.31775,-0.17793c-0.39646,0.32455 -0.94374,0.46503 -1.23753,0.91142c0.15622,-0.03426 0.15585,-0.26263 -0.01484,-0.09416c-0.32148,0.15971 -0.63217,0.44025 -0.51129,0.84056c0.02928,0.20542 -0.22927,0.38218 0.08635,0.43083c-0.04116,0.32887 -0.53451,0.31502 -0.5348,0.60528c0.1092,0.3166 0.06117,0.64654 -0.19856,0.8686c-0.25691,0.24025 -0.15111,0.59389 -0.14174,0.88574c-0.12921,0.19521 -0.20194,0.37673 -0.03164,0.56268c0.03605,0.33538 0.31447,0.55744 0.31654,0.90639c0.11721,0.18289 0.35225,0.17157 0.47231,0.37825c0.35072,0.02981 0.37645,0.51953 0.71053,0.58746c0.28698,0.0936 0.62654,0.0287 0.88513,0.09734c0.21208,0.17194 0.45552,0.29178 0.72251,0.34006c0.33563,0.21362 0.44971,-0.31804 0.65283,-0.48924c0.01053,-0.26768 0.20284,-0.28851 0.33163,-0.06311c0.29311,0.19872 0.59681,-0.14349 0.80694,-0.32457c0.20544,-0.22392 0.43592,-0.41778 0.66468,-0.61412c0.32477,-0.3666 0.44007,-0.8913 0.4219,-1.37386c0.03219,-0.3024 -0.24898,-0.31913 -0.4339,-0.35367c0.08361,-0.25354 0.29429,-0.61832 -0.1354,-0.64547c-0.24641,-0.06436 -0.80506,-0.33967 -0.48513,-0.6297c0.2361,-0.27588 -0.08883,-0.64725 -0.2338,-0.89645c-0.25107,-0.19982 -0.39694,-0.47818 -0.55306,-0.72121c-0.30225,-0.04816 -0.58549,-0.23184 -0.66255,-0.55248c-0.08069,-0.25464 -0.02234,-0.06607 0.00312,0.05789" id="path2251" stroke-miterlimit="4" stroke-width="0.8136" fill-rule="evenodd" fill="#ffffff"/>
        <path stroke="null" d="m18.45556,17.17295c-0.15136,-0.18605 0.44627,-0.09841 0.39694,-0.28424c0.08568,-0.21583 -0.01685,-0.22481 -0.08326,-0.34346c-0.39646,0.32455 -0.30309,-0.44433 -0.59688,0.00206c0.15622,-0.03426 0.13053,-0.59865 -0.04016,-0.43018c-0.32148,0.15971 -0.25337,-0.54878 -0.25366,-0.25852c0.1092,0.3166 0.06117,0.64654 -0.19856,0.8686c-0.25691,0.24025 -0.15111,0.59389 -0.14174,0.88574c-0.12921,0.19521 -0.20194,0.37673 -0.03164,0.56268c0.03605,0.33538 0.31447,0.55744 0.31654,0.90639c0.11721,0.18289 0.35225,0.17157 0.47231,0.37825c0.35072,0.02981 0.37645,0.51953 0.71053,0.58746c0.28698,0.0936 0.62654,0.0287 0.88513,0.09734c0.21208,0.17194 0.45552,0.29178 0.72251,0.34006c0.33563,0.21362 0.44971,-0.31804 0.65283,-0.48924c0.01053,-0.26768 0.20284,-0.28851 0.33163,-0.06311c0.29311,0.19872 0.59681,-0.14349 0.80694,-0.32457c0.20544,-0.22392 -0.78887,0.03396 -0.56011,-0.16237c0.32477,-0.36661 -0.73277,0.51172 -0.75094,0.02916c0.03219,-0.3024 -1.16926,0.38475 -0.91482,-0.14688c0.08361,-0.25354 0.14518,-0.07069 -0.28451,-0.09785c-0.24641,-0.06436 -0.92664,-0.51926 -0.6067,-0.80929c0.2361,-0.27588 -0.12685,0.04314 -0.27183,-0.20606c-0.25107,-0.19982 -0.09071,-0.0898 -0.24682,-0.33283c-0.30225,-0.04816 -0.16936,-0.17171 -0.24641,-0.49235c-0.13076,0.3762 -0.09277,-0.34076 -0.06731,-0.21679z" id="path4128" stroke-miterlimit="4" stroke-width="0.996" fill-rule="evenodd" fill="#000000" opacity="0.09551"/>
        <path stroke="null" d="m31.43002,18.16687c0,0 1.24244,-3.16755 1.54097,-4.43128c0.27931,-1.18235 0.24317,-2.98716 -0.17516,-3.3212c-0.41833,-0.33404 -0.96856,0.2437 -1.02656,0.92782c-0.05799,0.68412 -0.10656,0.85651 0.17425,2.16145c0.1273,0.59156 0.06372,1.99374 -0.10936,2.65552c-0.17308,0.66178 -0.55074,2.16888 -0.40415,2.00768z" id="path5880" stroke-width="1px" fill-rule="evenodd" fill-opacity="0.22346" fill="#000000"/>
    </g>
</svg>