<svg height="512" viewBox="0 0 64 64" width="512" xmlns="http://www.w3.org/2000/svg"><g id="sign_&#xB7;_ecommerce_&#xB7;_shopping_&#xB7;_tag_&#xB7;_sale" data-name="sign &#xB7; ecommerce &#xB7; shopping &#xB7; tag &#xB7; sale"><path d="m53.841 5.685-15.4 2.3a8 8 0 0 0 -4.477 2.256l-29.955 29.951a4 4 0 0 0 0 5.657l14.142 14.142a4 4 0 0 0 5.657 0l29.968-29.968a8 8 0 0 0 2.25-4.44l1.2-7.786 1.161-7.547a4 4 0 0 0 -4.546-4.565zm-1.041 9.759a3.022 3.022 0 1 1 .835-1.664 3 3 0 0 1 -.835 1.664z" fill="#ed1c24"/><path d="m56.256 6.085-1.032 6.715-1.2 7.786a8 8 0 0 1 -2.25 4.44l-29.966 29.965a4 4 0 0 1 -5.657 0l-13.125-13.124a3.982 3.982 0 0 0 .983 3.982l14.142 14.142a4 4 0 0 0 5.657 0l29.968-29.968a8 8 0 0 0 2.25-4.44l1.2-7.786 1.161-7.547a4 4 0 0 0 -2.131-4.165z" fill="#cf1820"/><g fill="#f1f2f2"><path d="m23.1 43.728a3 3 0 0 0 -4.243 0l-1.414 1.414a1 1 0 0 1 -1.415 0l-1.414-1.414a1 1 0 0 1 0-1.415l2.828-2.828a1 1 0 0 0 -1.414-1.414l-2.828 2.829a3 3 0 0 0 0 4.243l1.414 1.414a3 3 0 0 0 4.243 0l1.414-1.414a1 1 0 0 1 1.415 0l1.414 1.413a1 1 0 0 1 0 1.415l-2.828 2.829a1 1 0 1 0 1.414 1.414l2.829-2.828a3 3 0 0 0 0-4.243z"/><path d="m34.515 37.628-10.607-6.364a1 1 0 0 0 -1.221.15l-1.415 1.415a1 1 0 0 0 -.15 1.221l6.364 10.607a1 1 0 1 0 1.715-1.03l-1.72-2.866 3.138-3.138 2.866 1.72a1 1 0 0 0 1.03-1.715zm-8.095 1.366-3.182-5.3.31-.31 5.3 3.182z"/><path d="m40.657 30.414-3.536 3.536-7.778-7.778a1 1 0 1 0 -1.414 1.414l8.485 8.485a1 1 0 0 0 1.414 0l4.243-4.243a1 1 0 0 0 -1.414-1.414z"/><path d="m47.314 23.757-2.829 2.829-2.828-2.829 1.414-1.414a1 1 0 0 0 -1.414-1.414l-1.414 1.414-2.829-2.828 2.829-2.829a1 1 0 1 0 -1.414-1.414l-3.536 3.536a1 1 0 0 0 0 1.414l8.485 8.485a1 1 0 0 0 1.414 0l3.536-3.536a1 1 0 1 0 -1.414-1.414z"/></g><path d="m53.776 30.023-11.322 11.322c.047.368.081.657.094.74 1.287 8.193 4.763 13.915 8.452 13.915 4.878 0 9-9.617 9-21 0-5.965-1.1-11.514-3.036-15.516l-.938 6.1a8 8 0 0 1 -2.25 4.439z" fill="none"/><path d="m57.457 16.28.928-6.03a4 4 0 0 0 -2.129-4.165l-1.032 6.715-.126.818a11.909 11.909 0 0 1 2.359 2.662z" fill="#cf1820"/><path d="m58.09 17.3c-.2-.359-.417-.692-.633-1.017a11.909 11.909 0 0 0 -2.357-2.668 6.484 6.484 0 0 0 -4.1-1.615 1 1 0 0 0 0 2 5.206 5.206 0 0 1 3.729 2.01 12.751 12.751 0 0 1 1.624 2.277c.215.376.413.787.611 1.2 1.936 3.999 3.036 9.548 3.036 15.513 0 11.383-4.122 21-9 21-3.689 0-7.165-5.722-8.452-13.915-.013-.083-.047-.372-.094-.74l-1.754 1.755c1.577 9.072 5.578 14.9 10.3 14.9 6.168 0 11-10.1 11-23 0-6.915-1.426-13.369-3.91-17.7z" fill="#ffcd00"/></g></svg>