<?xml version="1.0" encoding="utf-8"?>
<!-- Generator: Adobe Illustrator 19.2.1, SVG Export Plug-In . SVG Version: 6.00 Build 0)  -->
<svg version="1.1" id="layer" xmlns="http://www.w3.org/2000/svg" xmlns:xlink="http://www.w3.org/1999/xlink" x="0px" y="0px"
	 viewBox="0 0 652 652" style="enable-background:new 0 0 652 652;" xml:space="preserve"
	 width="128" height="128">
<style type="text/css">
	.st0{fill:#FFFFFF;}
	.st1{fill:#093266;}
</style>
<g>
	<path class="st0" d="M69.8,85h500.8c33.3,0,47.8,11.9,47.8,41.9c0-30-14.6-41.9-47.8-41.9H69.8c-33.3,0-47.8,11.9-47.8,41.9v0.8
		v389.6v0.8c0,8.7,2.3,4.5,6.4,11.8c0.9,1.6,1.9,3.2,2.9,4.7c0.6,0.8,1.1,1.6,1.7,2.3c10.9,14,16.5,23.1,36.8,23.1h500.8
		c24.9,0,33.9-13.7,43.1-33.3c3.1-6.5,4.7-1.2,4.7-8.7v-0.8l0,0c0,0,0,0,0,0V127.7c0-30-14.6-41.9-47.8-41.9H69.8
		c-33.3,0-47.8,11.9-47.8,41.9v-0.8C21.9,96.9,36.5,85,69.8,85"/>
	<path class="st1" d="M69.8,72.5h500.8c33.3,0,60.3,24.4,60.3,54.4c0-30-27.1-54.4-60.3-54.4L69.8,72.5c-33.3,0-60.3,24.4-60.3,54.4
		v0.8v389.6v0.8c0,8.7,2.3,16.9,6.4,24.3c0.9,1.6,1.9,3.2,2.9,4.7c0.6,0.8,1.1,1.6,1.7,2.3c10.9,14,28.9,23.1,49.3,23.1h500.8
		c24.9,0,46.4-13.7,55.6-33.2c3.1-6.5,4.7-13.7,4.7-21.2v-0.8v0v0V127.7c0-30-27.1-54.4-60.3-54.4H69.8c-33.3,0-60.3,24.4-60.3,54.4
		v-0.8C9.4,96.9,36.5,72.5,69.8,72.5 M266.6,498.2h-13.5v30.4h-23.8V437h36.4c19.7,0,33.3,9.1,33.3,30.1
		C299,488.8,287.4,498.2,266.6,498.2 M384.5,528.6h-52.3V437H356v71.4h28.5V528.6z M496.2,488.5c0,11.8-0.5,23.4-9.6,32.3
		C479,528.3,467,531,456.3,531c-10.7,0-22.7-2.7-30.4-10.2c-9.1-8.9-9.6-20.5-9.6-32.3V437h23.8v48.2c0,11.9,0.9,24.9,16.2,24.9
		s16.2-13,16.2-24.9V437h23.8V488.5z M592.8,522.4c-7.2,6.1-16.8,8.6-26,8.6c-11.5,0-22.8-3.9-32.2-10.4l10.2-19.2
		c6,5.2,13,9.5,21.1,9.5c5.6,0,11.5-2.8,11.5-9.2c0-6.7-9.4-9-14.4-10.4c-14.9-4.3-24.8-8.1-24.8-25.9c0-18.6,13.2-30.7,31.6-30.7
		c9.2,0,20.5,2.9,28.7,7.5l-9.5,18.5c-4.4-3.6-10-6.1-15.8-6.1c-4.4,0-10.2,2.5-10.2,7.6c0,5.3,6.4,7.4,10.6,8.7l6.1,1.8
		c12.7,3.8,22.6,10.2,22.6,25C602.3,506.9,600.1,516.2,592.8,522.4 M25.6,127.7c0-21.1,19.8-38.3,44.2-38.3h500.8
		c24.4,0,44.2,17.1,44.2,38.3v243.8H302.8l-2.4,0.1c-19.7,21-47.7,34.1-78.7,34.1c-31,0-59.1-13.1-78.8-34.2l-1.8,0.1H25.6V127.7z"
		/>
	<path class="st1" d="M221.8,155.8v-22c-89.8,0-162.9,73.1-162.9,162.9h22C80.9,219,144.1,155.8,221.8,155.8"/>
	<path class="st1" d="M416,329.5l2.1-8.7l18.7,0l2.2,8.7l26.6,0l-24-68.8l-27.5,0l-24.6,68.7L416,329.5z M424.4,296.8
		c1-3.7,2.4-8.5,2.8-15.1h0.5c0.4,6.6,1.8,11.4,2.8,15.1l2.1,7.8h-10.3L424.4,296.8z"/>
	<path class="st1" d="M333.9,329.5l5.2-23.5c0.7-3.1,1.6-6.7,1.9-11.3h0.9c0.3,4.6,1.2,8.3,1.9,11.3l5.2,23.5l21.5,0l20.2-68.7
		l-24.8,0l-5.4,30.3c-0.5,3-1.3,7.4-1.5,13.5h-0.6c-0.2-5.4-1.2-9.2-1.6-11.7l-6.5-32.1l-17.4,0l-6.6,32.1
		c-0.5,2.5-1.4,6.3-1.6,11.7H324c-0.2-6.1-1.1-10.6-1.5-13.6l-5.3-30.3l-24.8,0l20,68.8L333.9,329.5z"/>
	<path class="st1" d="M156.7,296.7c0,35.9,29.1,65.1,65.1,65.1s65.1-29.1,65.1-65.1c0-35.9-29.1-65.1-65.1-65.1
		S156.7,260.8,156.7,296.7 M254.1,307.9l-12.8,20.5h-55.2l29.9-46.8h-28.6l12.4-19.9h54.4l-29,46.2H254.1z"/>
	<path class="st1" d="M221.8,199.2v-22c-65.9,0-119.4,53.6-119.4,119.4h22C124.3,243,168,199.2,221.8,199.2"/>
	<path class="st1" d="M509.6,329.6l26.2-68.7l-26.2,0l-7.7,25.5c-1.3,4.1-2.7,9.3-3.6,15.7h-0.5c-0.7-7.4-2.3-12.6-3.4-16.3
		l-7.3-24.9l-26.7,0l26.2,68.8L509.6,329.6z"/>
	<polygon class="st1" points="593.9,311.1 571.6,311 571.6,303.8 591.3,303.8 591.3,286.2 571.6,286.2 571.6,279.6 593.3,279.6 
		593.4,260.9 547.4,260.9 547.3,329.7 593.9,329.7 	"/>
	<path class="st1" d="M258.5,455.4h-4v22.8h4c8.6,0,17.1,0,17.1-11.2C275.6,455.5,267.7,455.4,258.5,455.4"/>
</g>
</svg>
